# xmcd
#
# Track frame offsets: 
#        150
#        12972
#        23818
#        42763
#        60057
#        75976
#        94440
#        110329
#        128756
#        146980
#        161453
#        180188
#        197849
#
# Disc length: 2886 seconds
#
# Revision: 0
# Processed by: cddbd v1.5.2PL0 Copyright (c) Steve Scherf et al.
# Submitted via: ExactAudioCopy v0.99pb4
#
DISCID=990b440d
DTITLE=Various Artist - Def Jam Sessions, Vol. 1
DYEAR=2007
DGENRE=R&B
TTITLE0=NaS - The N....
TTITLE1=Redman - F**k Da Security
TTITLE2=Fabolous Feat. Blue Davinci - Chirp Back
TTITLE3=Redman - Let's Go
TTITLE4=Method Man - O.D.
TTITLE5=NaS - Where Y'all At
TTITLE6=Ne-Yo - That's What It Does
TTITLE7=Bobby Valentino - Wreck
TTITLE8=Fabolous - I Shine, You Shine
TTITLE9=Bobby Valentino - Let's Go
TTITLE10=Ne-Yo - Spotlight
TTITLE11=Rihanna - Cry
TTITLE12=Rihanna - Haunted (Original Mix)
EXTD=
EXTT0=
EXTT1=
EXTT2=
EXTT3=
EXTT4=
EXTT5=
EXTT6=
EXTT7=
EXTT8=
EXTT9=
EXTT10=
EXTT11=
EXTT12=
PLAYORDER=
